<svg id="Layer_1" data-name="Layer 1" xmlns="http://www.w3.org/2000/svg" xmlns:xlink="http://www.w3.org/1999/xlink" viewBox="0 0 409.01 173.97"><defs><style>.cls-1{fill:none;}.cls-2{clip-path:url(#clip-path);}.cls-3{fill:#231f20;}.cls-4{fill:#6d6e71;}.cls-5{fill:#c62e3a;}</style><clipPath id="clip-path"><rect class="cls-1" width="409.01" height="173.97"/></clipPath></defs><title>SADaCC Colour</title><g class="cls-2"><g class="cls-2"><path class="cls-3" d="M183.89,78.65h-6.08l-1.06-5.56a10.76,10.76,0,0,0-3.08-1.16,18,18,0,0,0-4.3-.5,8.3,8.3,0,0,0-5.15,1.4,4.36,4.36,0,0,0-1.82,3.62,4,4,0,0,0,1.9,3.38,26.31,26.31,0,0,0,6.57,2.79q6.69,1.86,10.15,4.91a10.21,10.21,0,0,1,3.45,8,9.6,9.6,0,0,1-4.11,8.19q-4.11,3-10.83,3a23.41,23.41,0,0,1-8.67-1.53A18,18,0,0,1,154.4,101V92.56h6.28l.86,5.75a10,10,0,0,0,3.32,1.65,15.78,15.78,0,0,0,4.67.65,8.06,8.06,0,0,0,5.07-1.36,4.39,4.39,0,0,0,1.74-3.64,4.69,4.69,0,0,0-1.66-3.75,16.74,16.74,0,0,0-5.78-2.66q-7.2-2.08-10.89-4.94a9.38,9.38,0,0,1-3.69-7.83,9.63,9.63,0,0,1,4.16-8A17.42,17.42,0,0,1,169,65.18a24.26,24.26,0,0,1,8.5,1.42,19.63,19.63,0,0,1,6.44,3.77Z"/><path class="cls-3" d="M190.09,101.3l2.89-.41,12.3-35.15h8.3l12.22,35.15,2.89.41v4.86H214.91V101.3l2.81-.5-1.78-5.55h-13.1l-1.78,5.55,2.8.5v4.86H190.09Zm14.66-12H214L209.47,75h-.16Z"/><path class="cls-3" d="M252.38,65.74a16.71,16.71,0,0,1,12.22,4.73,16.34,16.34,0,0,1,4.8,12.15v6.69a16.28,16.28,0,0,1-4.8,12.15,16.73,16.73,0,0,1-12.22,4.7H234.19v-4.85l4.31-.84v-29l-4.31-.84V65.74h18.19ZM246.61,72v28H252a8.47,8.47,0,0,0,6.84-3,11.58,11.58,0,0,0,2.47-7.69V82.56a11.51,11.51,0,0,0-2.47-7.63A8.47,8.47,0,0,0,252,72Z"/><path class="cls-3" d="M295.54,106.16a13.54,13.54,0,0,1-.58-1.54,11.17,11.17,0,0,1-.39-1.59,11.15,11.15,0,0,1-3.51,2.69,10.59,10.59,0,0,1-4.74,1,9.88,9.88,0,0,1-7-2.41,8.46,8.46,0,0,1-2.59-6.53,7.43,7.43,0,0,1,3.38-6.53Q283.49,89,290,89h4.14V86a4.45,4.45,0,0,0-1.25-3.36,5.16,5.16,0,0,0-3.69-1.19,8.81,8.81,0,0,0-2.47.32,6.4,6.4,0,0,0-1.75.76l-.53,3.22h-6.11l0-6.66a23,23,0,0,1,5.09-2.53,18.66,18.66,0,0,1,6.27-1,14.25,14.25,0,0,1,9.06,2.73,9.33,9.33,0,0,1,3.49,7.79V98.5c0,.46,0,.9,0,1.31a8.63,8.63,0,0,0,.1,1.16l2.47.33v4.86Zm-7-5.41a7,7,0,0,0,3.33-.79,6.37,6.37,0,0,0,2.33-2V93.39H290a5.62,5.62,0,0,0-3.91,1.21,3.77,3.77,0,0,0-1.34,2.9,3,3,0,0,0,1,2.39,4.05,4.05,0,0,0,2.74.86"/><path class="cls-3" d="M343.42,79.37h-6L336.56,74a8.6,8.6,0,0,0-3-1.89,12.06,12.06,0,0,0-4.29-.69,9.52,9.52,0,0,0-8.12,3.83q-2.85,3.84-2.85,10v1.41a16.59,16.59,0,0,0,2.83,10,9.36,9.36,0,0,0,8,3.86,13,13,0,0,0,4.37-.7A7.28,7.28,0,0,0,336.56,98l.83-5.39h6v8a17.44,17.44,0,0,1-6.23,4.52,20.75,20.75,0,0,1-8.49,1.68,17.29,17.29,0,0,1-13.32-5.64q-5.2-5.64-5.2-14.47V85.28q0-8.79,5.17-14.46a17.22,17.22,0,0,1,13.35-5.67,20.28,20.28,0,0,1,8.47,1.71,18.18,18.18,0,0,1,6.25,4.51Z"/><path class="cls-3" d="M383.11,79.37h-6L376.25,74a8.69,8.69,0,0,0-3-1.89A12.14,12.14,0,0,0,369,71.4a9.51,9.51,0,0,0-8.12,3.83q-2.85,3.84-2.85,10v1.41q0,6.17,2.83,10a9.36,9.36,0,0,0,8,3.86,13,13,0,0,0,4.37-.7A7.28,7.28,0,0,0,376.25,98l.83-5.39h6v8a17.39,17.39,0,0,1-6.24,4.52,20.67,20.67,0,0,1-8.48,1.68,17.29,17.29,0,0,1-13.32-5.64q-5.2-5.64-5.2-14.47V85.28q0-8.79,5.17-14.46a17.22,17.22,0,0,1,13.35-5.67,20.31,20.31,0,0,1,8.47,1.71,18.18,18.18,0,0,1,6.25,4.51Z"/><path class="cls-4" d="M165.87,125.52H164l-.47-2.64a4.61,4.61,0,0,0-1.52-.79,6.77,6.77,0,0,0-2.21-.32,4.84,4.84,0,0,0-3,.84,2.66,2.66,0,0,0-1.06,2.2,2.43,2.43,0,0,0,1.08,2,10.52,10.52,0,0,0,3.5,1.41,10,10,0,0,1,4.43,2.12,4.57,4.57,0,0,1,1.51,3.49,4.25,4.25,0,0,1-1.81,3.58,7.74,7.74,0,0,1-4.76,1.36,9.72,9.72,0,0,1-3.78-.7,7.56,7.56,0,0,1-2.69-1.82v-3.43H155l.48,2.64a6.15,6.15,0,0,0,1.73,1,6.77,6.77,0,0,0,2.39.38,5,5,0,0,0,3-.8,2.54,2.54,0,0,0,1.1-2.17,2.75,2.75,0,0,0-1-2.12,8,8,0,0,0-3.36-1.44,11.08,11.08,0,0,1-4.57-2.05,4.22,4.22,0,0,1-1.65-3.4,4.4,4.4,0,0,1,1.84-3.61,7.5,7.5,0,0,1,4.77-1.43,9.1,9.1,0,0,1,3.53.66,7.77,7.77,0,0,1,2.55,1.62Z"/><path class="cls-4" d="M169.06,136.91l2.07-.35v-9.79l-2.07-.35v-1.61h4.56v11.75l2.07.35v1.6h-6.63Zm4.56-15.61h-2.49v-2.55h2.49Z"/><path class="cls-4" d="M184.26,136.83a3.38,3.38,0,0,0,2.19-.77,2.33,2.33,0,0,0,.94-1.88h2.24l0,.08a3.84,3.84,0,0,1-1.58,3.14,5.73,5.73,0,0,1-3.82,1.38,5.52,5.52,0,0,1-4.56-1.95,7.56,7.56,0,0,1-1.58-4.9v-.54a7.54,7.54,0,0,1,1.58-4.88,5.55,5.55,0,0,1,4.56-2,7.69,7.69,0,0,1,3,.55,6,6,0,0,1,2.17,1.49l.12,3h-2l-.55-2.15a3.2,3.2,0,0,0-1.14-.7,4.49,4.49,0,0,0-1.57-.26,3,3,0,0,0-2.8,1.41,6.67,6.67,0,0,0-.85,3.46v.54a6.69,6.69,0,0,0,.84,3.5,3,3,0,0,0,2.81,1.4"/><polygon class="cls-4" points="192.27 120.36 192.27 118.75 196.82 118.75 196.82 130.2 198.42 130.2 201.35 126.58 200.09 126.42 200.09 124.81 205.83 124.81 205.83 126.42 204.16 126.75 200.55 131.05 204.94 136.61 206.5 136.91 206.5 138.51 200.81 138.51 200.81 136.91 202.09 136.75 198.46 132.19 196.82 132.19 196.82 136.56 198.89 136.91 198.89 138.51 192.27 138.51 192.27 136.91 194.33 136.56 194.33 120.72 192.27 120.36"/><polygon class="cls-4" points="208.55 120.36 208.55 118.75 213.11 118.75 213.11 136.56 215.18 136.91 215.18 138.51 208.55 138.51 208.55 136.91 210.62 136.56 210.62 120.72 208.55 120.36"/><path class="cls-4" d="M223.84,138.78a5.77,5.77,0,0,1-4.55-1.91,7.17,7.17,0,0,1-1.7-5v-.55a7,7,0,0,1,1.75-4.87,5.35,5.35,0,0,1,4.12-2,5.17,5.17,0,0,1,4.18,1.68,6.63,6.63,0,0,1,1.43,4.45v1.56h-8.89l0,.06a5.46,5.46,0,0,0,1,3.25,3.19,3.19,0,0,0,2.7,1.28,6.3,6.3,0,0,0,2.22-.36,5.24,5.24,0,0,0,1.65-1l1,1.62a6,6,0,0,1-1.95,1.2,7.81,7.81,0,0,1-2.9.49m-.38-12.26a2.7,2.7,0,0,0-2.14,1,5,5,0,0,0-1.09,2.66l0,.06h6.33V130a3.81,3.81,0,0,0-.79-2.45,2.79,2.79,0,0,0-2.33-1"/><path class="cls-4" d="M238.58,136.92l1.37-.19,6.44-16.66h2.14l6.34,16.66,1.35.19v1.59h-5.29v-1.59l1.39-.24-1.21-3.4h-7.39l-1.25,3.4,1.39.24v1.59h-5.28Zm5.91-5.73h5.86l-2.87-7.91h-.07Z"/><path class="cls-4" d="M258.29,126.66v-1.85h2.14v-1.74a4.73,4.73,0,0,1,1.14-3.39,4.25,4.25,0,0,1,3.2-1.19,5.1,5.1,0,0,1,.87.07c.29,0,.61.11,1,.19l-.31,1.9a5.12,5.12,0,0,0-.55-.08,4.68,4.68,0,0,0-.66,0,2,2,0,0,0-1.64.65,3,3,0,0,0-.53,1.89v1.74h2.86v1.85h-2.86v9.9l2.07.36v1.59h-6.63v-1.59l2.07-.36v-9.9Z"/><path class="cls-4" d="M268.27,126.42v-1.61h4.29l.24,2a4.86,4.86,0,0,1,1.44-1.65,3.31,3.31,0,0,1,1.95-.6,4,4,0,0,1,.6,0l.48.09-.33,2.32-1.42-.08a2.85,2.85,0,0,0-1.66.47,3.09,3.09,0,0,0-1,1.3v7.86l2.07.35v1.6h-6.62v-1.6l2.06-.35v-9.79Z"/><path class="cls-4" d="M279.51,136.91l2.07-.35v-9.79l-2.07-.35v-1.61h4.56v11.75l2.07.35v1.6h-6.63Zm4.56-15.61h-2.49v-2.55h2.49Z"/><path class="cls-4" d="M294.71,136.83a3.34,3.34,0,0,0,2.18-.77,2.34,2.34,0,0,0,.95-1.88h2.24l0,.08a3.81,3.81,0,0,1-1.57,3.14,5.77,5.77,0,0,1-3.82,1.38,5.55,5.55,0,0,1-4.57-1.95,7.56,7.56,0,0,1-1.57-4.9v-.54a7.49,7.49,0,0,1,1.58-4.88,5.54,5.54,0,0,1,4.56-2,7.73,7.73,0,0,1,3,.55,6,6,0,0,1,2.17,1.49l.11,3h-2l-.54-2.15a3.39,3.39,0,0,0-1.14-.7,4.53,4.53,0,0,0-1.57-.26,3,3,0,0,0-2.81,1.41,6.67,6.67,0,0,0-.84,3.46v.54a6.69,6.69,0,0,0,.84,3.5,3,3,0,0,0,2.81,1.4"/><path class="cls-4" d="M312,138.51c-.08-.37-.14-.7-.18-1s-.07-.59-.09-.89a6,6,0,0,1-1.8,1.54,4.65,4.65,0,0,1-2.31.62,4.58,4.58,0,0,1-3.26-1.05,3.84,3.84,0,0,1-1.11-2.94,3.41,3.41,0,0,1,1.57-3,7.66,7.66,0,0,1,4.33-1.06h2.57v-1.59a2.46,2.46,0,0,0-.76-1.91,3,3,0,0,0-2.12-.7,5.21,5.21,0,0,0-1.65.24,3.1,3.1,0,0,0-1.16.66l-.26,1.44h-1.93V126.2a7.41,7.41,0,0,1,2.27-1.2,8.94,8.94,0,0,1,2.89-.45,5.75,5.75,0,0,1,3.77,1.19,4.18,4.18,0,0,1,1.44,3.41v6.6c0,.18,0,.35,0,.52s0,.34,0,.51l1,.13v1.6Zm-4-1.82a4.4,4.4,0,0,0,2.27-.6,3.75,3.75,0,0,0,1.47-1.43v-2.25h-2.66a3.84,3.84,0,0,0-2.43.7,2.16,2.16,0,0,0-.89,1.73,1.69,1.69,0,0,0,.56,1.37,2.51,2.51,0,0,0,1.68.48"/><path class="cls-4" d="M332.32,120.07a7.58,7.58,0,0,1,8,8v2.52a7.57,7.57,0,0,1-8,7.95H324.6v-1.6l2.06-.35V122l-2.06-.35v-1.61h7.72Zm-3.16,2v14.53h3.16a5.11,5.11,0,0,0,4-1.68,6.36,6.36,0,0,0,1.47-4.32V128a6.28,6.28,0,0,0-1.47-4.29,5.11,5.11,0,0,0-4-1.69Z"/><path class="cls-4" d="M352.26,138.51c-.08-.37-.14-.7-.18-1s-.07-.59-.09-.89a6,6,0,0,1-1.8,1.54,4.65,4.65,0,0,1-2.31.62,4.58,4.58,0,0,1-3.26-1.05,3.84,3.84,0,0,1-1.11-2.94,3.41,3.41,0,0,1,1.57-3,7.66,7.66,0,0,1,4.33-1.06H352v-1.59a2.46,2.46,0,0,0-.76-1.91,3,3,0,0,0-2.12-.7,5.21,5.21,0,0,0-1.65.24,3.1,3.1,0,0,0-1.16.66l-.26,1.44H344.1V126.2a7.41,7.41,0,0,1,2.27-1.2,8.94,8.94,0,0,1,2.89-.45,5.75,5.75,0,0,1,3.77,1.19,4.18,4.18,0,0,1,1.44,3.41v6.6c0,.18,0,.35,0,.52s0,.34,0,.51l1,.13v1.6Zm-4-1.82a4.4,4.4,0,0,0,2.27-.6,3.75,3.75,0,0,0,1.47-1.43v-2.25h-2.66a3.84,3.84,0,0,0-2.43.7,2.16,2.16,0,0,0-.89,1.73,1.69,1.69,0,0,0,.56,1.37,2.51,2.51,0,0,0,1.68.48"/><path class="cls-4" d="M362.48,121.5v3.31h2.59v1.85h-2.59V135a1.83,1.83,0,0,0,.4,1.35,1.44,1.44,0,0,0,1.05.4,5.36,5.36,0,0,0,.75-.06l.69-.12.34,1.71a3.33,3.33,0,0,1-1,.37,6.39,6.39,0,0,1-1.37.15,3.25,3.25,0,0,1-2.42-.92A4,4,0,0,1,360,135v-8.32h-2.16v-1.85H360V121.5Z"/><path class="cls-4" d="M377.08,138.51c-.08-.37-.14-.7-.18-1s-.07-.59-.09-.89a6,6,0,0,1-1.8,1.54,5.15,5.15,0,0,1-5.57-.43,3.84,3.84,0,0,1-1.11-2.94,3.39,3.39,0,0,1,1.58-3,7.63,7.63,0,0,1,4.32-1.06h2.57v-1.59a2.46,2.46,0,0,0-.76-1.91,3,3,0,0,0-2.11-.7,5.23,5.23,0,0,0-1.66.24,3.05,3.05,0,0,0-1.15.66l-.27,1.44h-1.93V126.2a7.41,7.41,0,0,1,2.27-1.2,9,9,0,0,1,2.89-.45,5.75,5.75,0,0,1,3.77,1.19,4.16,4.16,0,0,1,1.45,3.41v7.12l0,.51,1,.13v1.6Zm-4-1.82a4.39,4.39,0,0,0,2.26-.6,3.62,3.62,0,0,0,1.47-1.43v-2.25h-2.66a3.79,3.79,0,0,0-2.42.7,2.14,2.14,0,0,0-.9,1.73,1.69,1.69,0,0,0,.56,1.37,2.53,2.53,0,0,0,1.69.48"/><path class="cls-4" d="M166.82,155.24h-1.76l-.47-2.6a4.65,4.65,0,0,0-1.49-1,5.43,5.43,0,0,0-2.12-.38,5.17,5.17,0,0,0-4.42,2.08,8.7,8.7,0,0,0-1.54,5.29v.29a8.79,8.79,0,0,0,1.51,5.3,4.89,4.89,0,0,0,4.2,2.1A6.34,6.34,0,0,0,163,166a4.4,4.4,0,0,0,1.58-1l.47-2.61h1.76v3.29a6.87,6.87,0,0,1-2.39,1.82,8.07,8.07,0,0,1-3.7.81,7.47,7.47,0,0,1-5.9-2.66,9.82,9.82,0,0,1-2.31-6.69v-.26a10,10,0,0,1,2.27-6.71,7.43,7.43,0,0,1,5.94-2.65,8.07,8.07,0,0,1,3.7.81,7.26,7.26,0,0,1,2.39,1.83Z"/><path class="cls-4" d="M170,161a7.52,7.52,0,0,1,1.65-5,6.09,6.09,0,0,1,9,0,7.52,7.52,0,0,1,1.65,5v.28a7.49,7.49,0,0,1-1.64,5,6.12,6.12,0,0,1-9,0,7.49,7.49,0,0,1-1.65-5Zm2.5.28a6.52,6.52,0,0,0,.92,3.6,3,3,0,0,0,2.73,1.42,3,3,0,0,0,2.69-1.42,6.44,6.44,0,0,0,.93-3.6V161a6.44,6.44,0,0,0-.93-3.58,3.29,3.29,0,0,0-5.43,0,6.52,6.52,0,0,0-.91,3.58Z"/><path class="cls-4" d="M185.09,161a7.51,7.51,0,0,1,1.64-5,6.09,6.09,0,0,1,9,0,7.53,7.53,0,0,1,1.66,5v.28a7.5,7.5,0,0,1-1.65,5,6.12,6.12,0,0,1-9,0,7.48,7.48,0,0,1-1.64-5Zm2.49.28a6.52,6.52,0,0,0,.92,3.6,3.31,3.31,0,0,0,5.43,0,6.52,6.52,0,0,0,.92-3.6V161a6.52,6.52,0,0,0-.92-3.58A3.06,3.06,0,0,0,191.2,156a3,3,0,0,0-2.71,1.43,6.52,6.52,0,0,0-.91,3.58Z"/><path class="cls-4" d="M200.14,155.93v-1.61h4.3l.24,2a4.94,4.94,0,0,1,1.43-1.65,3.36,3.36,0,0,1,2-.6,4,4,0,0,1,.6.05,2.6,2.6,0,0,1,.48.1l-.33,2.31-1.42-.07a2.85,2.85,0,0,0-1.66.46,3,3,0,0,0-1,1.3v7.86l2.07.36V168h-6.63v-1.59l2.07-.36v-9.79Z"/><path class="cls-4" d="M220.38,166.39a4.37,4.37,0,0,1-1.64,1.42,5,5,0,0,1-2.25.48,4.67,4.67,0,0,1-3.91-1.82,7.51,7.51,0,0,1-1.42-4.78v-.27a9.08,9.08,0,0,1,1.42-5.33,4.52,4.52,0,0,1,3.94-2,4.89,4.89,0,0,1,2.15.45,4.49,4.49,0,0,1,1.59,1.29v-5.58l-2.07-.36v-1.61h4.56v17.81l2.07.36V168h-4.23Zm-6.72-4.7a5.8,5.8,0,0,0,.85,3.32,3,3,0,0,0,2.62,1.25,3.34,3.34,0,0,0,1.87-.5,3.87,3.87,0,0,0,1.26-1.44V158A3.79,3.79,0,0,0,219,156.6a3.27,3.27,0,0,0-1.85-.51,2.85,2.85,0,0,0-2.64,1.48,7.68,7.68,0,0,0-.85,3.85Z"/><path class="cls-4" d="M227.23,166.43l2.07-.36v-9.79l-2.07-.35v-1.61h4.56v11.75l2.07.36V168h-6.63Zm4.56-15.62H229.3v-2.55h2.49Z"/><path class="cls-4" d="M235.91,166.43l2.06-.36v-9.79l-2.06-.35v-1.61h4.29l.18,2a5,5,0,0,1,1.71-1.69,4.62,4.62,0,0,1,2.35-.6,4.5,4.5,0,0,1,3.44,1.29,5.72,5.72,0,0,1,1.21,4v6.7l2.07.36V168h-6.63v-1.59l2.07-.36v-6.65a3.71,3.71,0,0,0-.72-2.57,2.87,2.87,0,0,0-2.18-.76,3.57,3.57,0,0,0-1.91.52,3.84,3.84,0,0,0-1.32,1.42v8l2.06.36V168h-6.62Z"/><path class="cls-4" d="M262.43,168c-.08-.37-.14-.7-.18-1s-.07-.59-.09-.88a6.1,6.1,0,0,1-1.8,1.53,5.15,5.15,0,0,1-5.57-.43,3.82,3.82,0,0,1-1.11-2.94,3.42,3.42,0,0,1,1.57-3,7.77,7.77,0,0,1,4.33-1.06h2.57v-1.59a2.47,2.47,0,0,0-.76-1.91,3,3,0,0,0-2.12-.7,5.21,5.21,0,0,0-1.65.24,3.18,3.18,0,0,0-1.16.66l-.26,1.44h-1.93v-2.66a7.4,7.4,0,0,1,2.27-1.19,9,9,0,0,1,2.89-.45,5.7,5.7,0,0,1,3.77,1.19,4.16,4.16,0,0,1,1.44,3.4v6.6c0,.18,0,.35,0,.52l0,.51,1,.14V168Zm-4-1.82a4.4,4.4,0,0,0,2.27-.6,3.69,3.69,0,0,0,1.47-1.43v-2.25h-2.66a3.73,3.73,0,0,0-2.42.71,2.11,2.11,0,0,0-.9,1.72,1.69,1.69,0,0,0,.56,1.37,2.51,2.51,0,0,0,1.68.48"/><path class="cls-4" d="M272.65,151v3.31h2.59v1.85h-2.59v8.32a1.83,1.83,0,0,0,.4,1.35,1.4,1.4,0,0,0,1.05.4,5.25,5.25,0,0,0,.75-.06l.69-.12.34,1.71a3.09,3.09,0,0,1-1,.37,6.39,6.39,0,0,1-1.37.15,3.25,3.25,0,0,1-2.42-.92,4,4,0,0,1-.9-2.88v-8.32H268v-1.85h2.16V151Z"/><path class="cls-4" d="M278.31,166.43l2.06-.36v-9.79l-2.06-.35v-1.61h4.56v11.75l2.06.36V168h-6.62Zm4.56-15.62h-2.5v-2.55h2.5Z"/><path class="cls-4" d="M287,166.43l2.07-.36v-9.79l-2.07-.35v-1.61h4.3l.18,2a4.85,4.85,0,0,1,1.71-1.69,4.59,4.59,0,0,1,2.35-.6,4.48,4.48,0,0,1,3.43,1.29,5.73,5.73,0,0,1,1.22,4v6.7l2.06.36V168h-6.62v-1.59l2.06-.36v-6.65a3.71,3.71,0,0,0-.71-2.57,2.91,2.91,0,0,0-2.19-.76,3.56,3.56,0,0,0-1.9.52,3.79,3.79,0,0,0-1.33,1.42v8l2.07.36V168H287Z"/><path class="cls-4" d="M304.45,161.42a9,9,0,0,1,1.44-5.33,4.62,4.62,0,0,1,4-2,4.84,4.84,0,0,1,2.27.5,4.49,4.49,0,0,1,1.63,1.47l.23-1.72h2.1v13.52a5.75,5.75,0,0,1-1.48,4.19,5.6,5.6,0,0,1-4.22,1.53,9,9,0,0,1-2.14-.28,7.86,7.86,0,0,1-2-.74l.64-1.93a7.91,7.91,0,0,0,1.65.6,7.54,7.54,0,0,0,1.85.25,3,3,0,0,0,2.45-.94,4.1,4.1,0,0,0,.78-2.68v-1.3a4.35,4.35,0,0,1-1.61,1.3,4.89,4.89,0,0,1-2.15.45,4.8,4.8,0,0,1-4-1.82,7.5,7.5,0,0,1-1.44-4.78Zm2.49.27a5.65,5.65,0,0,0,.88,3.32,3,3,0,0,0,2.66,1.25,3.28,3.28,0,0,0,1.88-.51,3.9,3.9,0,0,0,1.26-1.45V158a3.93,3.93,0,0,0-1.26-1.39,3.28,3.28,0,0,0-1.86-.51,2.9,2.9,0,0,0-2.67,1.5,7.41,7.41,0,0,0-.89,3.83Z"/><path class="cls-4" d="M340.67,155.24h-1.76l-.47-2.6a4.65,4.65,0,0,0-1.49-1,5.46,5.46,0,0,0-2.12-.38,5.16,5.16,0,0,0-4.42,2.08,8.64,8.64,0,0,0-1.54,5.29v.29a8.79,8.79,0,0,0,1.51,5.3,4.89,4.89,0,0,0,4.2,2.1,6.42,6.42,0,0,0,2.28-.39,4.49,4.49,0,0,0,1.58-1l.47-2.61h1.76v3.29a6.87,6.87,0,0,1-2.39,1.82,8.09,8.09,0,0,1-3.7.81,7.45,7.45,0,0,1-5.9-2.66,9.82,9.82,0,0,1-2.31-6.69v-.26a10,10,0,0,1,2.27-6.71,7.43,7.43,0,0,1,5.94-2.65,8.09,8.09,0,0,1,3.7.81,7.26,7.26,0,0,1,2.39,1.83Z"/><path class="cls-4" d="M350.11,168.29a5.8,5.8,0,0,1-4.56-1.91,7.16,7.16,0,0,1-1.69-4.94v-.56A7,7,0,0,1,345.6,156a5.36,5.36,0,0,1,4.13-1.94,5.16,5.16,0,0,1,4.18,1.67,6.63,6.63,0,0,1,1.43,4.46v1.55h-8.89l0,.07a5.42,5.42,0,0,0,1,3.25,3.21,3.21,0,0,0,2.7,1.27,6.3,6.3,0,0,0,2.22-.36,4.9,4.9,0,0,0,1.65-1l1,1.62a5.78,5.78,0,0,1-1.95,1.2,7.62,7.62,0,0,1-2.9.49M349.73,156a2.68,2.68,0,0,0-2.14,1.06,4.89,4.89,0,0,0-1.09,2.65l0,.06h6.32v-.33a3.82,3.82,0,0,0-.78-2.45,2.8,2.8,0,0,0-2.33-1"/><path class="cls-4" d="M357.94,166.43l2.07-.36v-9.79l-2.07-.35v-1.61h4.3l.18,2a4.85,4.85,0,0,1,1.71-1.69,4.59,4.59,0,0,1,2.35-.6,4.48,4.48,0,0,1,3.43,1.29,5.73,5.73,0,0,1,1.22,4v6.7l2.06.36V168h-6.62v-1.59l2.06-.36v-6.65a3.71,3.71,0,0,0-.71-2.57,2.91,2.91,0,0,0-2.19-.76,3.56,3.56,0,0,0-1.9.52A3.79,3.79,0,0,0,362.5,158v8l2.07.36V168h-6.63Z"/><path class="cls-4" d="M379.88,151v3.31h2.6v1.85h-2.6v8.32a1.83,1.83,0,0,0,.4,1.35,1.41,1.41,0,0,0,1.06.4,5.23,5.23,0,0,0,.74-.06l.69-.12.34,1.71a3.09,3.09,0,0,1-1,.37,6.39,6.39,0,0,1-1.37.15,3.25,3.25,0,0,1-2.42-.92,4,4,0,0,1-.9-2.88v-8.32h-2.16v-1.85h2.16V151Z"/><path class="cls-4" d="M391.8,168.29a5.8,5.8,0,0,1-4.56-1.91,7.2,7.2,0,0,1-1.69-4.94v-.56a7,7,0,0,1,1.74-4.87,5.36,5.36,0,0,1,4.13-1.94,5.16,5.16,0,0,1,4.18,1.67A6.63,6.63,0,0,1,397,160.2v1.55h-8.89l0,.07a5.42,5.42,0,0,0,1,3.25,3.21,3.21,0,0,0,2.7,1.27A6.3,6.3,0,0,0,394,166a4.9,4.9,0,0,0,1.65-1l1,1.62a5.78,5.78,0,0,1-1.95,1.2,7.62,7.62,0,0,1-2.9.49M391.42,156a2.68,2.68,0,0,0-2.14,1.06,4.89,4.89,0,0,0-1.09,2.65l0,.06h6.32v-.33a3.82,3.82,0,0,0-.78-2.45,2.8,2.8,0,0,0-2.33-1"/><path class="cls-4" d="M400,155.93v-1.61h4.3l.24,2a4.94,4.94,0,0,1,1.43-1.65,3.36,3.36,0,0,1,2-.6,4,4,0,0,1,.6.05,2.6,2.6,0,0,1,.48.1l-.33,2.31-1.42-.07a2.85,2.85,0,0,0-1.66.46,3,3,0,0,0-1,1.3v7.86l2.07.36V168H400v-1.59l2.07-.36v-9.79Z"/><rect class="cls-5" x="85.05" y="12.51" width="3.99" height="33.81"/><rect class="cls-5" x="85.05" y="84.52" width="3.99" height="56.71"/><rect class="cls-5" x="10.82" y="62.76" width="57.67" height="3.99"/><rect class="cls-5" x="105.49" y="62.76" width="32.54" height="3.99"/><path class="cls-5" d="M115,34c-8-11-9.51-26.45-10.73-26.13s-4.28,20.9,3.32,31.46c7.73,10.74,28.41,14.13,28.78,13.14.14-1-13.64-7.73-21.37-18.47"/><path class="cls-5" d="M57.78,94.12c9.47,9.78,13.24,24.79,14.4,24.3s1.22-21.3-7.84-30.65c-9.2-9.51-30.15-9.86-30.38-8.84,0,1,14.62,5.68,23.82,15.19"/><path class="cls-5" d="M59.53,7.64a47.69,47.69,0,0,1,14.3,3.73c3.39,1.55,4.09.58,1.56-2.15,0,0-7.31-7.9-15.33-8.51s-16.44,6.1-16.44,6.1c-2.91,2.32-2.36,3.38,1.22,2.36A47.94,47.94,0,0,1,59.53,7.64"/><path class="cls-5" d="M17.67,64.75A8.75,8.75,0,1,1,8.92,56a8.76,8.76,0,0,1,8.75,8.75"/><path class="cls-5" d="M146.77,64.76A8.75,8.75,0,1,1,138,56a8.75,8.75,0,0,1,8.75,8.76"/><path class="cls-5" d="M95.8,141.23A8.76,8.76,0,1,1,87,132.47a8.76,8.76,0,0,1,8.76,8.76"/><path class="cls-5" d="M95.8,14.34A8.76,8.76,0,1,1,87,5.59a8.76,8.76,0,0,1,8.76,8.75"/><path class="cls-5" d="M39.34,12.51A4.38,4.38,0,1,1,35,8.13a4.38,4.38,0,0,1,4.38,4.38"/><path class="cls-5" d="M117.4,116.93a4.38,4.38,0,1,1-4.38-4.38,4.37,4.37,0,0,1,4.38,4.38"/><path class="cls-5" d="M120.4,91.38c3.85-8.51,12.48-14.72,11.87-15.33s-13.9,4.61-17.58,12.75,1.33,21.74,2,21.63c.65-.27-.08-10.77,3.66-19.05"/><path class="cls-5" d="M14.26,31.92c3.85-8.51,12.48-14.72,11.87-15.34S12.23,21.2,8.55,29.34,9.88,51.08,10.6,51c.65-.27-.08-10.77,3.66-19"/><path class="cls-5" d="M103.72,130.81c-1.85,5.66-6.9,10.19-6.47,10.54s8.49-3.88,10.27-9.3-2.35-13.69-2.79-13.57.79,6.82-1,12.33"/><path class="cls-5" d="M67.85,126.82a40.43,40.43,0,0,1-2.23-12.25c0-3.14-1-3.33-2.19-.43,0,0-3.44,8.39-1.06,14.74s10.5,10.4,10.5,10.4c2.8,1.4,3.42.61,1.37-1.76a40.31,40.31,0,0,1-6.39-10.7"/><path class="cls-5" d="M108.48,86.19H65.61V43.32h42.87Zm-36.88-6h30.89V49.31H71.6Z"/><path class="cls-5" d="M97.79,75.5H76.3V54H97.79Zm-17.5-4H93.8V58H80.29Z"/></g></g></svg>