<svg id="Layer_1" data-name="Layer 1" xmlns="http://www.w3.org/2000/svg" xmlns:xlink="http://www.w3.org/1999/xlink" viewBox="0 0 384.74 167.75"><defs><style>.cls-1{fill:none;}.cls-2{clip-path:url(#clip-path);}.cls-3{fill:#c62e3a;}.cls-4{fill:#231f20;}.cls-5{fill:#6d6e71;}</style><clipPath id="clip-path"><rect class="cls-1" width="384.74" height="167.75"/></clipPath></defs><title>SPAN Colour</title><g class="cls-2"><rect class="cls-3" x="85.08" y="11.86" width="4" height="35.29"/><rect class="cls-3" x="85.08" y="82.74" width="4" height="56.89"/><rect class="cls-3" x="10.67" y="62.23" width="57.92" height="4"/><rect class="cls-3" x="105.49" y="62.23" width="34.48" height="4"/><g class="cls-2"><path class="cls-3" d="M115.08,33.4c-8-11.08-9.53-26.51-10.76-26.2s-4.29,21,3.33,31.54c7.75,10.77,28.47,14.16,28.85,13.17.13-1-13.68-7.75-21.42-18.51"/><path class="cls-3" d="M57.75,93.67C67.24,103.47,71,118.52,72.19,118S73.4,96.68,64.33,87.3c-9.23-9.53-30.22-9.88-30.45-8.86,0,1,14.65,5.69,23.87,15.23"/><path class="cls-3" d="M59.51,7a48.11,48.11,0,0,1,14.33,3.74c3.39,1.55,4.1.58,1.56-2.16C75.4,8.56,68.08.65,60,0S43.56,6.15,43.56,6.15c-2.92,2.32-2.37,3.39,1.21,2.36A48.29,48.29,0,0,1,59.51,7"/><path class="cls-3" d="M17.55,64.23a8.78,8.78,0,1,1-8.78-8.77,8.77,8.77,0,0,1,8.78,8.77"/><path class="cls-3" d="M147,64.23a8.78,8.78,0,1,1-8.78-8.77A8.78,8.78,0,0,1,147,64.23"/><path class="cls-3" d="M95.85,140.89a8.77,8.77,0,1,1-8.77-8.78,8.77,8.77,0,0,1,8.77,8.78"/><path class="cls-3" d="M95.85,13.7a8.77,8.77,0,1,1-8.77-8.77,8.77,8.77,0,0,1,8.77,8.77"/><path class="cls-3" d="M39.26,11.86a4.39,4.39,0,1,1-4.38-4.39,4.39,4.39,0,0,1,4.38,4.39"/><path class="cls-3" d="M117.51,116.53a4.39,4.39,0,1,1-4.39-4.38,4.39,4.39,0,0,1,4.39,4.38"/><path class="cls-3" d="M120.52,90.93c3.86-8.54,12.51-14.76,11.9-15.38s-13.93,4.62-17.63,12.79,1.34,21.79,2.06,21.68c.65-.27-.08-10.79,3.67-19.09"/><path class="cls-3" d="M14.13,31.32C18,22.79,26.63,16.57,26,16S12.09,20.57,8.4,28.73s1.34,21.8,2,21.68-.07-10.79,3.68-19.09"/><path class="cls-3" d="M103.8,130.44c-1.86,5.68-6.91,10.22-6.49,10.57s8.52-3.89,10.3-9.32-2.35-13.73-2.8-13.6.79,6.83-1,12.35"/><path class="cls-3" d="M67.84,126.45a40.64,40.64,0,0,1-2.23-12.28c0-3.15-1-3.34-2.2-.43,0,0-3.45,8.41-1.06,14.77s10.52,10.43,10.52,10.43c2.81,1.4,3.43.61,1.38-1.77a40.49,40.49,0,0,1-6.41-10.72"/><path class="cls-3" d="M87.08,85.74a21.49,21.49,0,1,1,21.49-21.49A21.51,21.51,0,0,1,87.08,85.74m0-37a15.49,15.49,0,1,0,15.49,15.48A15.49,15.49,0,0,0,87.08,48.77"/><path class="cls-3" d="M87.08,76.13A11.9,11.9,0,1,1,99,64.23a11.91,11.91,0,0,1-11.9,11.9m0-19.79A7.9,7.9,0,1,0,95,64.23a7.9,7.9,0,0,0-7.9-7.89"/><path class="cls-4" d="M179.07,78.16H173l-1.06-5.57a11,11,0,0,0-3.08-1.17,18.27,18.27,0,0,0-4.32-.5,8.27,8.27,0,0,0-5.16,1.41A4.37,4.37,0,0,0,157.53,76a4,4,0,0,0,1.9,3.38,26.35,26.35,0,0,0,6.58,2.8q6.72,1.86,10.18,4.93a10.21,10.21,0,0,1,3.46,8,9.61,9.61,0,0,1-4.12,8.21q-4.11,3-10.85,3a23.57,23.57,0,0,1-8.7-1.54,17.93,17.93,0,0,1-6.47-4.23V92.1h6.29l.86,5.76A9.77,9.77,0,0,0,160,99.52a15.59,15.59,0,0,0,4.69.66,8.11,8.11,0,0,0,5.08-1.37,4.39,4.39,0,0,0,1.74-3.64,4.71,4.71,0,0,0-1.66-3.76,16.58,16.58,0,0,0-5.8-2.67q-7.22-2.1-10.91-5a9.37,9.37,0,0,1-3.7-7.85,9.63,9.63,0,0,1,4.17-8.05,17.4,17.4,0,0,1,10.49-3.22,24.33,24.33,0,0,1,8.52,1.42,19.77,19.77,0,0,1,6.46,3.79Z"/><path class="cls-4" d="M205,65.22q7,0,11,3.57a12,12,0,0,1,4,9.37,11.83,11.83,0,0,1-4,9.35q-4,3.54-11,3.54h-6.85v9l4.35.83v4.87H185.7v-4.87L190,100V71l-4.32-.83v-4.9H205Zm-6.85,19.56H205a6.69,6.69,0,0,0,5.13-1.85,6.59,6.59,0,0,0,1.74-4.71,6.89,6.89,0,0,0-1.74-4.83A6.6,6.6,0,0,0,205,71.48h-6.85Z"/><path class="cls-4" d="M218.44,100.87l2.9-.42,12.33-35.23H242l12.25,35.23,2.89.42v4.87h-13.8v-4.87l2.81-.5-1.78-5.57H231.22l-1.78,5.57,2.81.5v4.87H218.44Zm14.7-12.05h9.3l-4.57-14.28h-.17Z"/><polygon class="cls-4" points="304.07 65.22 304.07 70.12 299.73 70.95 299.73 105.74 291.63 105.74 275.26 78.47 275.09 78.49 275.09 100.03 279.44 100.87 279.44 105.74 262.65 105.74 262.65 100.87 266.97 100.03 266.97 70.95 262.65 70.12 262.65 65.22 266.97 65.22 275.09 65.22 291.46 92.49 291.63 92.47 291.63 70.95 287.28 70.12 287.28 65.22 299.73 65.22 304.07 65.22"/><path class="cls-5" d="M161,125.14h-1.89l-.47-2.64a4.57,4.57,0,0,0-1.53-.8,7,7,0,0,0-2.2-.32,4.79,4.79,0,0,0-3.06.85,2.67,2.67,0,0,0-1.07,2.2,2.42,2.42,0,0,0,1.09,2,10.27,10.27,0,0,0,3.51,1.42,9.91,9.91,0,0,1,4.43,2.13,4.58,4.58,0,0,1,1.52,3.49,4.26,4.26,0,0,1-1.82,3.59,7.77,7.77,0,0,1-4.77,1.36,9.63,9.63,0,0,1-3.79-.7,7.69,7.69,0,0,1-2.7-1.82v-3.44h1.88l.48,2.65a6.29,6.29,0,0,0,1.73,1,6.87,6.87,0,0,0,2.4.38,5,5,0,0,0,3-.8,2.56,2.56,0,0,0,1.1-2.17,2.76,2.76,0,0,0-1-2.13,8.07,8.07,0,0,0-3.37-1.44,11.26,11.26,0,0,1-4.58-2.06,4.23,4.23,0,0,1-1.65-3.41,4.4,4.4,0,0,1,1.84-3.61,7.55,7.55,0,0,1,4.79-1.45,9.14,9.14,0,0,1,3.53.67A8.16,8.16,0,0,1,161,121.7Z"/><path class="cls-5" d="M164.21,136.56l2.07-.35V126.4l-2.07-.36v-1.61h4.57v11.78l2.07.35v1.6h-6.64Zm4.57-15.65h-2.5v-2.55h2.5Z"/><path class="cls-5" d="M179.44,136.48a3.38,3.38,0,0,0,2.19-.77,2.35,2.35,0,0,0,1-1.89h2.24l0,.08a3.83,3.83,0,0,1-1.58,3.15,5.78,5.78,0,0,1-3.83,1.38,5.56,5.56,0,0,1-4.58-2,7.6,7.6,0,0,1-1.58-4.92V131a7.5,7.5,0,0,1,1.59-4.89,5.54,5.54,0,0,1,4.57-2,7.78,7.78,0,0,1,3,.55,5.86,5.86,0,0,1,2.17,1.5l.12,3.05h-2l-.54-2.16a3.39,3.39,0,0,0-1.14-.7,4.36,4.36,0,0,0-1.58-.27,3,3,0,0,0-2.81,1.42,6.68,6.68,0,0,0-.84,3.47v.53a6.71,6.71,0,0,0,.83,3.51,3,3,0,0,0,2.82,1.41"/><polygon class="cls-5" points="187.46 119.97 187.46 118.36 192.03 118.36 192.03 129.84 193.63 129.84 196.57 126.2 195.31 126.04 195.31 124.43 201.06 124.43 201.06 126.04 199.38 126.37 195.77 130.69 200.17 136.26 201.73 136.56 201.73 138.16 196.03 138.16 196.03 136.56 197.32 136.4 193.67 131.83 192.03 131.83 192.03 136.21 194.1 136.56 194.1 138.16 187.46 138.16 187.46 136.56 189.53 136.21 189.53 120.33 187.46 119.97"/><polygon class="cls-5" points="203.79 119.97 203.79 118.36 208.36 118.36 208.36 136.21 210.43 136.56 210.43 138.16 203.79 138.16 203.79 136.56 205.86 136.21 205.86 120.33 203.79 119.97"/><path class="cls-5" d="M219.11,138.43a5.77,5.77,0,0,1-4.56-1.91,7.2,7.2,0,0,1-1.7-5V131a7.07,7.07,0,0,1,1.75-4.88,5.4,5.4,0,0,1,4.13-2,5.21,5.21,0,0,1,4.2,1.68,6.68,6.68,0,0,1,1.43,4.47v1.56h-8.92l0,.06a5.36,5.36,0,0,0,1,3.26,3.19,3.19,0,0,0,2.7,1.28,6.32,6.32,0,0,0,2.23-.36,5.41,5.41,0,0,0,1.66-1l1,1.62a5.83,5.83,0,0,1-1.94,1.2,7.72,7.72,0,0,1-2.92.49m-.38-12.29a2.71,2.71,0,0,0-2.14,1.06,5,5,0,0,0-1.1,2.66l0,.07h6.33v-.33a3.86,3.86,0,0,0-.78-2.47,2.82,2.82,0,0,0-2.34-1"/><path class="cls-5" d="M242.59,119.68a6.54,6.54,0,0,1,4.6,1.52,5.75,5.75,0,0,1,0,8,6.54,6.54,0,0,1-4.6,1.51h-3.93v5.46l2.07.36v1.59h-6.64v-1.59l2.07-.36V121.65l-2.07-.36v-1.61h8.5Zm-3.93,9.12h3.93a3.67,3.67,0,0,0,2.81-1,3.62,3.62,0,0,0,.93-2.55,3.67,3.67,0,0,0-.93-2.56,3.6,3.6,0,0,0-2.81-1h-3.93Z"/><path class="cls-5" d="M260.18,138.16c-.08-.37-.13-.7-.18-1s-.07-.59-.09-.89a6.16,6.16,0,0,1-1.8,1.55,4.65,4.65,0,0,1-2.32.61,4.58,4.58,0,0,1-3.26-1.05,3.81,3.81,0,0,1-1.12-2.95,3.41,3.41,0,0,1,1.58-3,7.66,7.66,0,0,1,4.33-1.06h2.58v-1.6a2.46,2.46,0,0,0-.76-1.91,3,3,0,0,0-2.12-.71,5.23,5.23,0,0,0-1.66.24,3.18,3.18,0,0,0-1.16.66l-.27,1.45H252v-2.67a7.5,7.5,0,0,1,2.27-1.19,8.71,8.71,0,0,1,2.89-.46,5.76,5.76,0,0,1,3.79,1.2,4.17,4.17,0,0,1,1.44,3.41v6.62c0,.17,0,.35,0,.52a4.36,4.36,0,0,0,0,.51l1,.14v1.59Zm-4-1.82a4.43,4.43,0,0,0,2.27-.6,3.75,3.75,0,0,0,1.47-1.43v-2.26h-2.66a3.79,3.79,0,0,0-2.44.71,2.14,2.14,0,0,0-.89,1.72,1.73,1.73,0,0,0,.56,1.38,2.53,2.53,0,0,0,1.69.48"/><path class="cls-5" d="M265.69,136.57l2.07-.36V126.4l-2.07-.36v-1.61H270l.18,2a5,5,0,0,1,1.72-1.69,4.63,4.63,0,0,1,2.36-.61,4.49,4.49,0,0,1,3.44,1.31,5.7,5.7,0,0,1,1.22,4v6.71l2.06.36v1.6h-6.63v-1.6l2.06-.36v-6.66a3.72,3.72,0,0,0-.71-2.58,2.87,2.87,0,0,0-2.19-.76,3.49,3.49,0,0,0-1.91.52,3.72,3.72,0,0,0-1.33,1.42v8.06l2.07.36v1.6h-6.64Z"/><path class="cls-5" d="M290.43,136.34l1.37-.19,6.47-16.7h2.14l6.35,16.7,1.36.19v1.6h-5.31v-1.6l1.4-.24L303,132.69h-7.4l-1.26,3.41,1.4.24v1.6h-5.3Zm5.93-5.74h5.87l-2.87-7.94h-.08Z"/><path class="cls-5" d="M310.19,126.05V124.2h2.14v-1.74a4.69,4.69,0,0,1,1.15-3.39,4.23,4.23,0,0,1,3.21-1.2,5.07,5.07,0,0,1,.86.07c.3,0,.62.11,1,.19l-.31,1.91a3.5,3.5,0,0,0-.55-.09,4.92,4.92,0,0,0-.67,0,2,2,0,0,0-1.63.65,2.93,2.93,0,0,0-.54,1.9v1.74h2.87v1.85h-2.87V136l2.07.36v1.6h-6.64v-1.6l2.07-.36v-9.93Z"/><path class="cls-5" d="M320.19,125.81V124.2h4.3l.24,2a4.86,4.86,0,0,1,1.44-1.65,3.44,3.44,0,0,1,2-.59,4.22,4.22,0,0,1,.6,0,2.6,2.6,0,0,1,.48.1l-.33,2.32-1.43-.08a2.85,2.85,0,0,0-1.66.47,2.94,2.94,0,0,0-1,1.3V136l2.07.36v1.6h-6.64v-1.6l2.07-.36v-9.81Z"/><path class="cls-5" d="M331.46,136.34l2.07-.36v-9.81l-2.07-.36V124.2H336V136l2.07.36v1.6h-6.64ZM336,120.68h-2.5v-2.55H336Z"/><path class="cls-5" d="M346.7,136.25a3.38,3.38,0,0,0,2.19-.77,2.34,2.34,0,0,0,.94-1.89h2.25l0,.08a3.82,3.82,0,0,1-1.58,3.16,5.8,5.8,0,0,1-3.82,1.37,5.55,5.55,0,0,1-4.58-1.95,7.6,7.6,0,0,1-1.58-4.92v-.53a7.52,7.52,0,0,1,1.59-4.89,5.52,5.52,0,0,1,4.57-2,7.69,7.69,0,0,1,3,.54,6.14,6.14,0,0,1,2.18,1.5l.11,3h-2l-.55-2.16a3.2,3.2,0,0,0-1.14-.7,4.35,4.35,0,0,0-1.57-.27,3,3,0,0,0-2.82,1.42,6.68,6.68,0,0,0-.84,3.47v.53a6.77,6.77,0,0,0,.84,3.52,3,3,0,0,0,2.82,1.4"/><path class="cls-5" d="M364,137.94c-.07-.38-.13-.71-.17-1a6.56,6.56,0,0,1-.09-.88,6.3,6.3,0,0,1-1.81,1.54,5.22,5.22,0,0,1-5.58-.43,3.85,3.85,0,0,1-1.12-3,3.43,3.43,0,0,1,1.58-3,7.7,7.7,0,0,1,4.34-1.06h2.57v-1.6a2.47,2.47,0,0,0-.76-1.91,3,3,0,0,0-2.12-.7,5.17,5.17,0,0,0-1.65.24,3.14,3.14,0,0,0-1.17.66l-.26,1.44h-1.93V125.6a7.3,7.3,0,0,1,2.27-1.2A9,9,0,0,1,361,124a5.74,5.74,0,0,1,3.78,1.19,4.19,4.19,0,0,1,1.45,3.42v7.13l0,.51,1,.14v1.6Zm-4-1.83a4.4,4.4,0,0,0,2.27-.6,3.62,3.62,0,0,0,1.47-1.43v-2.26h-2.66a3.74,3.74,0,0,0-2.43.71,2.13,2.13,0,0,0-.9,1.72,1.7,1.7,0,0,0,.56,1.38,2.54,2.54,0,0,0,1.69.48"/><path class="cls-5" d="M369.53,136.34l2.07-.36v-9.81l-2.07-.36V124.2h4.31l.17,2a5.14,5.14,0,0,1,1.72-1.69,4.65,4.65,0,0,1,2.36-.6,4.47,4.47,0,0,1,3.44,1.3,5.72,5.72,0,0,1,1.22,4V136l2.07.36v1.6h-6.64v-1.6l2.07-.36v-6.66a3.72,3.72,0,0,0-.72-2.58,2.87,2.87,0,0,0-2.19-.76,3.49,3.49,0,0,0-1.91.52,3.87,3.87,0,0,0-1.33,1.42V136l2.07.36v1.6h-6.64Z"/><polygon class="cls-5" points="166.26 149.26 166.26 150.88 164.19 151.23 164.19 167.75 161.69 167.75 152.8 153.48 152.72 153.5 152.72 165.79 154.79 166.15 154.79 167.75 148.15 167.75 148.15 166.15 150.22 165.79 150.22 151.23 148.15 150.88 148.15 149.26 150.22 149.26 152.72 149.26 161.61 163.52 161.69 163.5 161.69 151.23 159.62 150.88 159.62 149.26 164.19 149.26 166.26 149.26"/><path class="cls-5" d="M175,168a5.79,5.79,0,0,1-4.57-1.91,7.21,7.21,0,0,1-1.69-4.95v-.56a7,7,0,0,1,1.75-4.88,5.37,5.37,0,0,1,4.13-2,5.22,5.22,0,0,1,4.19,1.67,6.68,6.68,0,0,1,1.43,4.47v1.56h-8.91l0,.07a5.46,5.46,0,0,0,1,3.25,3.22,3.22,0,0,0,2.71,1.28,6.32,6.32,0,0,0,2.23-.36,5.06,5.06,0,0,0,1.65-1l1,1.63a6.12,6.12,0,0,1-2,1.2A7.92,7.92,0,0,1,175,168m-.38-12.28a2.7,2.7,0,0,0-2.15,1.06,5,5,0,0,0-1.09,2.65l0,.07h6.33v-.33a3.8,3.8,0,0,0-.79-2.46,2.79,2.79,0,0,0-2.33-1"/><path class="cls-5" d="M187.57,150.7V154h2.61v1.85h-2.61v8.35a1.88,1.88,0,0,0,.4,1.35,1.42,1.42,0,0,0,1.06.4,5.12,5.12,0,0,0,.74-.06l.7-.12.34,1.71a3.08,3.08,0,0,1-1,.38,6.44,6.44,0,0,1-1.37.14,3.22,3.22,0,0,1-2.43-.92,4,4,0,0,1-.9-2.88v-8.35H182.9V154h2.17V150.7Z"/><polygon class="cls-5" points="198.12 155.62 196.55 155.9 198.34 162.75 198.63 164.41 198.71 164.41 199.06 162.75 201.8 154.01 203.81 154.01 206.56 162.75 206.96 164.6 207.03 164.6 207.4 162.75 209.09 155.9 207.49 155.62 207.49 154.01 212.72 154.01 212.72 155.62 211.53 155.8 208.06 167.75 206.04 167.75 203.38 159.38 202.81 157.07 202.73 157.08 202.2 159.38 199.58 167.75 197.56 167.75 194.1 155.8 192.89 155.62 192.89 154.01 198.12 154.01 198.12 155.62"/><path class="cls-5" d="M215.27,160.75a7.57,7.57,0,0,1,1.65-5,6.11,6.11,0,0,1,9,0,7.53,7.53,0,0,1,1.65,5V161a7.52,7.52,0,0,1-1.65,5,6.15,6.15,0,0,1-9,0,7.52,7.52,0,0,1-1.65-5Zm2.5.28a6.56,6.56,0,0,0,.92,3.61,3.06,3.06,0,0,0,2.74,1.42,3,3,0,0,0,2.7-1.42,6.47,6.47,0,0,0,.93-3.61v-.28a6.47,6.47,0,0,0-.93-3.59,3.3,3.3,0,0,0-5.44,0,6.56,6.56,0,0,0-.92,3.59Z"/><path class="cls-5" d="M230.37,155.62V154h4.3l.24,2a4.86,4.86,0,0,1,1.44-1.65,3.41,3.41,0,0,1,2-.59,4.26,4.26,0,0,1,.61,0,2.66,2.66,0,0,1,.47.1l-.33,2.32-1.42-.08a2.85,2.85,0,0,0-1.66.47,2.94,2.94,0,0,0-1,1.3v7.88l2.07.36v1.6h-6.64v-1.6l2.07-.36V156Z"/><polygon class="cls-5" points="241.04 149.56 241.04 147.94 245.61 147.94 245.61 159.42 247.21 159.42 250.15 155.79 248.89 155.62 248.89 154.01 254.64 154.01 254.64 155.62 252.96 155.95 249.35 160.27 253.75 165.84 255.31 166.15 255.31 167.75 249.61 167.75 249.61 166.15 250.9 165.98 247.25 161.41 245.61 161.41 245.61 165.79 247.68 166.15 247.68 167.75 241.04 167.75 241.04 166.15 243.11 165.79 243.11 149.91 241.04 149.56"/></g></g></svg>